<svg width="18" height="17" viewBox="0 0 18 17" fill="none" xmlns="http://www.w3.org/2000/svg">
<path d="M8.03884 0.465938C4.15369 0.469171 0.995306 3.63282 0.998539 7.51797C1.00177 11.4033 4.16542 14.5615 8.05057 14.5583C11.9359 14.555 15.0941 11.3916 15.0909 7.50624C15.0876 3.62109 11.9242 0.462705 8.03884 0.465938ZM8.04948 13.2575C4.88153 13.2601 2.30201 10.6849 2.29937 7.51691C2.29673 4.34896 4.87197 1.76941 8.03992 1.76677C11.2079 1.76413 13.7874 4.33937 13.79 7.50732C13.7927 10.6753 11.2174 13.2548 8.04948 13.2575Z" fill="#363636"/>
<path d="M16.8147 15.3485L13.0825 11.6225C12.8282 11.3687 12.4167 11.369 12.1628 11.6233C11.909 11.8774 11.9093 12.2893 12.1636 12.543L15.8958 16.269C16.0229 16.3959 16.1893 16.4593 16.3558 16.4591C16.5221 16.459 16.6885 16.3953 16.8155 16.2682C17.0693 16.0141 17.069 15.6022 16.8147 15.3485Z" fill="#363636"/>
</svg>
